<?xml version="1.0" encoding="UTF-8"?><svg xmlns="http://www.w3.org/2000/svg" viewBox="0 0 284.21 142.98"><defs><style>.d{fill:#fff;}.e{fill:#c1ccdd;}.f,.g{fill:#8ea2c0;}.h{fill:#c7d0df;}.i,.g{opacity:.5;}</style></defs><g id="a"/><g id="b"><g id="c"><g><path class="e" d="M212.97,9.97c1.53,0,2.78-1.25,2.78-2.79s-1.24-2.79-2.78-2.79-2.78,1.25-2.78,2.79,1.24,2.79,2.78,2.79Z"/><path class="e" d="M27.76,78.9c1.53,0,2.78-1.25,2.78-2.79s-1.24-2.79-2.78-2.79-2.78,1.25-2.78,2.79,1.24,2.79,2.78,2.79Z"/><path class="e" d="M233.1,107.57c1.41,0,2.56-1.15,2.56-2.57s-1.14-2.57-2.56-2.57-2.56,1.15-2.56,2.57,1.14,2.57,2.56,2.57Z"/><path class="h" d="M238.2,70.79c-3.3,0-5.98-2.69-5.98-6s2.68-6,5.98-6,5.98,2.69,5.98,6-2.68,6-5.98,6Zm0-9.96c-2.18,0-3.95,1.78-3.95,3.97s1.77,3.97,3.95,3.97,3.95-1.78,3.95-3.97-1.77-3.97-3.95-3.97Z"/><path class="h" d="M105.61,8.79c-2.41,0-4.38-1.97-4.38-4.4s1.97-4.39,4.38-4.39,4.38,1.97,4.38,4.39-1.97,4.4-4.38,4.4Zm0-6.76c-1.29,0-2.35,1.06-2.35,2.36s1.05,2.36,2.35,2.36,2.35-1.06,2.35-2.36-1.05-2.36-2.35-2.36Z"/><path class="h" d="M4.38,124.67c-2.41,0-4.38-1.97-4.38-4.39s1.97-4.4,4.38-4.4,4.38,1.97,4.38,4.4-1.97,4.39-4.38,4.39Zm0-6.76c-1.29,0-2.35,1.06-2.35,2.36s1.05,2.36,2.35,2.36,2.35-1.06,2.35-2.36-1.05-2.36-2.35-2.36Z"/><path class="h" d="M279.83,26.88c-2.41,0-4.38-1.97-4.38-4.39s1.97-4.4,4.38-4.4,4.38,1.97,4.38,4.4-1.97,4.39-4.38,4.39Zm0-6.76c-1.29,0-2.35,1.06-2.35,2.36s1.05,2.36,2.35,2.36,2.35-1.06,2.35-2.36-1.05-2.36-2.35-2.36Z"/><path class="e" d="M50.03,114.5c2.43,0,4.4-1.98,4.4-4.42s-1.97-4.42-4.4-4.42-4.4,1.98-4.4,4.42,1.97,4.42,4.4,4.42Z"/><rect class="d" x="66.24" y="36.25" width="147.71" height="96.75" rx="3.34" ry="3.34"/><path class="g" d="M229.37,132.67h-16.25c1.75-1.61,2.86-3.9,2.86-6.47V43.04c0-4.87-3.96-8.82-8.82-8.82H73.03c-4.87,0-8.82,3.96-8.82,8.82V126.2c0,2.56,1.11,4.85,2.86,6.47h-16.25c-2.85,0-5.15,2.31-5.15,5.15s2.31,5.15,5.15,5.15H229.37c2.85,0,5.15-2.31,5.15-5.15s-2.31-5.15-5.15-5.15ZM68.27,43.04c0-2.63,2.14-4.76,4.76-4.76H207.16c2.62,0,4.76,2.14,4.76,4.76V126.2c0,2.63-2.14,4.76-4.76,4.76H73.03c-2.62,0-4.76-2.14-4.76-4.76V43.04Z"/><g class="i"><path class="f" d="M128.65,84.49c.4,.4,.92,.6,1.44,.6s1.04-.2,1.44-.6c.79-.79,.79-2.08,0-2.87l-5.3-5.3,5.3-5.3c.79-.79,.79-2.08,0-2.87s-2.08-.79-2.87,0l-5.3,5.3-5.3-5.3c-.79-.79-2.08-.79-2.87,0s-.79,2.08,0,2.87l5.3,5.3-5.3,5.3c-.79,.79-.79,2.08,0,2.87,.4,.4,.92,.6,1.44,.6s1.04-.2,1.44-.6l5.3-5.3,5.3,5.3Z"/><path class="f" d="M162.13,76.32l5.3-5.3c.79-.79,.79-2.08,0-2.87s-2.08-.79-2.87,0l-5.3,5.3-5.3-5.3c-.79-.79-2.08-.79-2.87,0s-.79,2.08,0,2.87l5.3,5.3-5.3,5.3c-.79,.79-.79,2.08,0,2.87,.4,.4,.92,.6,1.44,.6s1.04-.2,1.44-.6l5.3-5.3,5.3,5.3c.4,.4,.92,.6,1.44,.6s1.04-.2,1.44-.6c.79-.79,.79-2.08,0-2.87l-5.3-5.3Z"/><path class="f" d="M160.67,100.14h-36.91c-1.12,0-2.03,.91-2.03,2.03s.91,2.03,2.03,2.03h36.91c1.12,0,2.03-.91,2.03-2.03s-.91-2.03-2.03-2.03Z"/></g></g></g></g></svg>