<svg width="11" height="13" viewBox="0 0 11 13" fill="none" xmlns="http://www.w3.org/2000/svg">
<path d="M8.3348 0H0V13H11V2.45274L8.3348 0Z" fill="white"/>
<path d="M8.33472 2.45274H10.9999L8.33472 0V2.45274Z" fill="#F2F2F2"/>
<path d="M3.38257 5.82382H3.74959V7.63138C3.74959 7.87506 3.66914 8.0663 3.50994 8.20511C3.35073 8.34237 3.13789 8.41178 2.8731 8.41178C2.60831 8.41178 2.38207 8.347 2.22956 8.21745C2.07538 8.0879 1.99829 7.90591 1.99829 7.67148H2.36363C2.36363 7.818 2.40721 7.93212 2.49435 8.01387C2.5815 8.09561 2.70719 8.13725 2.8731 8.13725C3.02393 8.13725 3.14627 8.09406 3.24012 8.00615C3.33397 7.91824 3.38089 7.7964 3.38257 7.63755V5.82536V5.82382Z" fill="black"/>
<path d="M4.73839 7.3769V8.3763H4.37305V5.82382H5.39533C5.69867 5.82382 5.93664 5.89477 6.10926 6.0382C6.28187 6.18009 6.36734 6.36979 6.36734 6.60422C6.36734 6.85253 6.28355 7.04223 6.11428 7.17641C5.9467 7.31059 5.70537 7.3769 5.39198 7.3769H4.73839ZM4.73839 7.10238H5.39533C5.59141 7.10238 5.74056 7.06074 5.84447 6.97437C5.94837 6.88954 6.00032 6.76616 6.00032 6.60576C6.00032 6.45308 5.94837 6.33123 5.84447 6.24024C5.74056 6.14924 5.59811 6.10143 5.41544 6.09835H4.73671V7.10083L4.73839 7.10238Z" fill="black"/>
<path d="M8.88111 8.04162C8.78726 8.16501 8.65654 8.25754 8.48727 8.31924C8.31968 8.38093 8.12361 8.41177 7.89904 8.41177C7.67447 8.41177 7.47169 8.36242 7.29739 8.26525C7.1231 8.16809 6.98735 8.02929 6.89015 7.84884C6.79295 7.66839 6.74435 7.46018 6.74268 7.22267V7.00058C6.74268 6.61655 6.83988 6.31735 7.03596 6.10606C7.23036 5.89476 7.5052 5.78835 7.85714 5.78835C8.14707 5.78835 8.38002 5.85621 8.55598 5.99193C8.73195 6.12765 8.84088 6.32198 8.87943 6.57183H8.51409C8.44537 6.23252 8.22751 6.06287 7.85881 6.06287C7.61414 6.06287 7.42811 6.14153 7.30075 6.30038C7.17505 6.45924 7.11137 6.68904 7.10969 6.98979V7.19799C7.10969 7.48486 7.18008 7.71312 7.32253 7.88123C7.46498 8.05088 7.65771 8.13416 7.89904 8.13416C8.03646 8.13416 8.15545 8.12028 8.25935 8.09252C8.36158 8.06476 8.44705 8.01695 8.51409 7.95063V7.37844H7.87222V7.10391H8.87775V8.04008L8.88111 8.04162Z" fill="black"/>
</svg>
