<svg width="20" height="20" viewBox="0 0 20 20" fill="none" xmlns="http://www.w3.org/2000/svg">
<path d="M9.28935 0.710649L0.710649 9.28935C0.318168 9.68183 0.318168 10.3182 0.710649 10.7106L9.28935 19.2894C9.68183 19.6818 10.3182 19.6818 10.7106 19.2894L19.2894 10.7106C19.6818 10.3182 19.6818 9.68183 19.2894 9.28935L10.7106 0.710649C10.3182 0.318169 9.68183 0.318168 9.28935 0.710649Z" fill="#D5191B"/>
<path d="M19.4691 9.11289L10.8891 0.533803C10.6532 0.299368 10.3341 0.167786 10.0016 0.167786C9.66899 0.167786 9.34993 0.299368 9.11404 0.533803L0.534962 9.11289C0.300528 9.34877 0.168945 9.66783 0.168945 10.0004C0.168945 10.333 0.300528 10.652 0.534962 10.8879L9.11404 19.468C9.34993 19.7024 9.66899 19.834 10.0016 19.834C10.3341 19.834 10.6532 19.7024 10.8891 19.468L19.4691 10.8879C19.7041 10.6523 19.836 10.3331 19.836 10.0004C19.836 9.66767 19.7041 9.34851 19.4691 9.11289ZM19.1151 10.5339L10.5361 19.113C10.3942 19.2539 10.2025 19.3329 10.0026 19.3329C9.80265 19.3329 9.61087 19.2539 9.46905 19.113L0.888966 10.5339C0.748389 10.3921 0.669514 10.2006 0.669514 10.0009C0.669514 9.80124 0.748389 9.60967 0.888966 9.46789L4.469 5.88385L6.15102 7.56787C5.55224 8.51555 5.32385 9.65071 5.50955 10.7562C5.69525 11.8617 6.28199 12.86 7.15754 13.56C8.03309 14.26 9.13599 14.6127 10.2553 14.5505C11.3745 14.4884 12.4316 14.0158 13.2243 13.2231C14.0169 12.4304 14.4895 11.3734 14.5517 10.2541C14.6138 9.13483 14.2612 8.03193 13.5611 7.15638C12.8611 6.28083 11.8629 5.69409 10.7574 5.50839C9.65187 5.32269 8.51671 5.55108 7.56903 6.14986L5.88501 4.46784L9.46905 0.887806C9.61087 0.746925 9.80265 0.667858 10.0026 0.667858C10.2025 0.667858 10.3942 0.746925 10.5361 0.887806L19.1141 9.46789C19.255 9.60954 19.334 9.80116 19.334 10.0009C19.334 10.2006 19.255 10.3923 19.1141 10.5339H19.1151Z" fill="white"/>
<path d="M7.96825 12.032C8.33935 12.403 8.80496 12.6653 9.31457 12.7904C9.82417 12.9155 10.3583 12.8986 10.859 12.7416C11.3597 12.5846 11.8078 12.2935 12.1548 11.8998C12.5017 11.5062 12.7343 11.025 12.8271 10.5086C12.92 9.99214 12.8696 9.46012 12.6815 8.97027C12.4934 8.48041 12.1748 8.05142 11.7601 7.72985C11.3455 7.40828 10.8507 7.20641 10.3294 7.14615C9.80815 7.08588 9.28034 7.16953 8.80326 7.388L10.6833 9.26802C10.8684 9.44802 10.9785 9.69141 10.9914 9.94927C11.0044 10.2071 10.9193 10.4603 10.7533 10.658C10.6631 10.7612 10.5528 10.8447 10.429 10.9034C10.3053 10.9621 10.1708 10.9948 10.0339 10.9993C9.89701 11.0039 9.76064 10.9804 9.63323 10.9301C9.50583 10.8798 9.39011 10.8039 9.29326 10.707L7.39324 8.80201C7.14795 9.33473 7.07157 9.92977 7.17435 10.5072C7.27714 11.0846 7.55418 11.6167 7.96825 12.032V12.032Z" fill="#878786"/>
</svg>
