<svg width="59" height="32" viewBox="0 0 59 32" fill="none" xmlns="http://www.w3.org/2000/svg">
<path d="M27.6952 9.92798V15.952C24.3467 15.952 21.6406 13.2596 21.6406 9.92798H27.6952Z" fill="#C6C6C6"/>
<path d="M28.2988 9.92798H34.3534C34.3534 13.2596 31.6473 15.952 28.2988 15.952V9.92798Z" fill="#878787"/>
<path d="M28.2988 9.34713V0.262695C33.3411 0.262695 37.4488 4.33035 37.4488 9.34713H28.2988Z" fill="#CF3339"/>
<path d="M27.6952 9.32772H21.6406C21.6406 5.99611 24.3467 3.30371 27.6952 3.30371V9.32772Z" fill="#9D9C9C"/>
<path d="M17.8444 29.7822H1.04346V30.7895H17.8444V29.7822Z" fill="#CF3339"/>
<path d="M58.9611 29.7822H42.1602V30.7895H58.9611V29.7822Z" fill="#CF3339"/>
<path d="M28.1816 24.029C28.1816 24.397 27.8701 24.707 27.5002 24.707C27.1303 24.707 26.8188 24.397 26.8188 24.029C26.8188 23.661 27.1303 23.3511 27.5002 23.3511C27.8701 23.3511 28.1816 23.661 28.1816 24.029Z" fill="#CF3339"/>
<path d="M3.37932 24.8816H6.18273L4.72262 21.8406L3.37932 24.8816ZM2.95102 25.7145L2.50325 26.7411C2.44485 26.8961 2.32804 27.1092 2.32804 27.2254C2.32804 27.3222 2.38644 27.361 2.54219 27.361V27.5159H0.945801V27.361C1.15995 27.361 1.21835 27.3222 1.47144 26.7605L3.84655 21.5694C3.98283 21.2788 4.0607 21.1626 4.0607 21.0658C4.0607 20.9883 3.96336 20.9108 3.82708 20.9108V20.7559H5.71549V20.9108C5.55975 20.9108 5.50134 20.9689 5.50134 21.0658C5.50134 21.1626 5.59868 21.3176 5.73496 21.6081L8.22688 26.7218C8.5189 27.3222 8.53837 27.361 8.83039 27.361V27.5159H7.01986V27.361C7.23401 27.361 7.27294 27.3029 7.27294 27.1866C7.27294 27.1092 7.25347 27.051 7.09773 26.7605L6.61102 25.7339H2.95102V25.7145Z" fill="black"/>
<path d="M11.848 26.6055H15.0992C15.9363 26.6055 16.3451 26.1988 16.3451 25.5015C16.3451 24.8041 15.9168 24.3974 15.0992 24.3974H11.848V26.6055ZM11.848 23.4676H14.8071C15.8 23.4676 16.1115 23.1771 16.1115 22.5766C16.1115 21.9955 15.7806 21.6856 14.8071 21.6856H11.848V23.4676ZM10.7578 21.2207C10.7578 21.0464 10.6994 20.9108 10.4463 20.9108V20.7559H14.9045C16.5593 20.7559 17.1823 21.5307 17.1823 22.4991C17.1823 23.1771 16.9097 23.7001 16.2089 23.8744V23.8938C16.9486 24.0681 17.3575 24.7073 17.3575 25.5402C17.3575 26.7799 16.6177 27.5159 14.8071 27.5159H10.4463V27.361C10.6994 27.361 10.7578 27.2254 10.7578 27.051V21.2207Z" fill="black"/>
<path d="M19.8691 27.5159V27.361C20.1222 27.361 20.1806 27.2254 20.1806 27.051V21.2207C20.1806 21.0464 20.1222 20.9108 19.8691 20.9108V20.7559H21.5823V20.9108C21.3293 20.9108 21.2708 21.0464 21.2708 21.2207V27.051C21.2708 27.2254 21.3293 27.361 21.5823 27.361V27.5159H19.8691Z" fill="black"/>
<path d="M24.8137 24.1454C24.8137 25.7531 25.8455 26.741 27.5782 26.741C29.3109 26.741 30.3427 25.7531 30.3427 24.1454C30.3427 22.5377 29.3109 21.5692 27.5782 21.5692C25.8455 21.5499 24.8137 22.5377 24.8137 24.1454ZM31.4718 24.1454C31.4718 26.3729 29.817 27.6126 27.5782 27.6126C25.3394 27.6126 23.6846 26.3729 23.6846 24.1454C23.6846 21.9179 25.3394 20.6782 27.5782 20.6782C29.817 20.6782 31.4718 21.9179 31.4718 24.1454Z" fill="black"/>
<path d="M37.8186 24.9785C37.4877 24.9785 37.3709 25.056 37.3709 25.269H37.2151V23.7582H37.3709C37.3709 24.0294 37.5266 24.1456 37.8186 24.1456H40.6026V24.3005C40.4274 24.3005 40.369 24.3586 40.369 24.6298V25.7533C40.369 26.0438 40.4274 26.0826 40.6026 26.1213V26.2763C39.3566 27.2447 37.9938 27.6128 36.9036 27.6128C34.6259 27.6128 32.9321 26.2181 32.9321 24.2424C32.9321 22.228 34.5675 20.6978 36.7674 20.6978C39.0062 20.6978 39.6486 21.5694 39.9601 21.5694C40.0964 21.5694 40.1353 21.4919 40.1937 21.4144L40.3495 21.5113L39.4345 22.8284L39.2787 22.7316C39.3177 22.6928 39.3371 22.6347 39.3371 22.5766C39.3371 22.2861 38.2275 21.5694 36.7868 21.5694C34.84 21.5694 33.9834 22.7703 33.9834 24.1456C33.9834 25.8114 35.2878 26.7411 36.6505 26.7411C37.7602 26.7411 38.7142 26.4118 39.2982 25.9663V24.9785H37.8186Z" fill="black"/>
<path d="M43.1919 21.2206C43.1919 21.0463 43.1335 20.9107 42.8804 20.9107V20.7557H48.312C48.7597 20.7557 48.8376 20.6976 48.8376 20.5039H48.9934V21.976H48.8376C48.8376 21.7629 48.7208 21.608 48.3314 21.608H44.2821V23.6418H46.9103C47.2218 23.6418 47.4359 23.545 47.4359 23.2738H47.5917V24.8234H47.4554C47.4554 24.6878 47.4164 24.6103 47.3386 24.5522C47.2607 24.4941 47.1244 24.4747 46.9492 24.4747H44.3015V26.6829H48.6235C48.9934 26.6829 49.1491 26.5666 49.1491 26.2374H49.3048V27.8063H49.1491C49.1491 27.5933 49.0128 27.5158 48.7013 27.5158H42.8998V27.3608C43.1529 27.3608 43.2113 27.2252 43.2113 27.0509V21.2206H43.1919Z" fill="black"/>
<path d="M57.735 25.8307H57.7545V21.2207C57.7545 21.0464 57.6961 20.9108 57.443 20.9108V20.7559H59.0004V20.9108C58.7473 20.9108 58.689 21.0464 58.689 21.2207V27.051C58.689 27.2254 58.7473 27.361 59.0004 27.361V27.5159H57.3456V27.361C57.5209 27.361 57.5987 27.3416 57.5987 27.2641C57.5987 27.1479 57.5014 27.0704 57.4625 27.0123L52.8485 21.8018V27.051C52.8485 27.2254 52.9069 27.361 53.16 27.361V27.5159H51.6025V27.361C51.8556 27.361 51.914 27.2254 51.914 27.051V21.2207C51.914 21.0464 51.8556 20.9108 51.6025 20.9108V20.7559H53.8024V20.9108C53.6078 20.9108 53.5494 20.9496 53.5494 21.0464C53.5494 21.1045 53.6078 21.1626 53.6467 21.2207L57.735 25.8307Z" fill="black"/>
<path d="M21.6794 30.4792H22.4776C22.7696 30.4792 22.867 30.363 22.867 30.1693C22.867 29.995 22.7891 29.8981 22.4776 29.8981H21.6794V30.4792ZM21.3874 29.8013C21.3874 29.7625 21.3679 29.7238 21.3095 29.7238V29.6851H22.4971C22.9643 29.6851 23.1395 29.8594 23.1395 30.1693C23.1395 30.518 22.9448 30.7117 22.4971 30.7117H21.6794V31.3896C21.6794 31.4477 21.6989 31.4671 21.7573 31.4671V31.5058H21.29V31.4671C21.3484 31.4671 21.3679 31.4283 21.3679 31.3896V29.8013H21.3874Z" fill="black"/>
<path d="M26.1187 31.3896C26.1187 31.4477 26.1382 31.4671 26.1966 31.4671V31.5058H25.7293V31.4671C25.7877 31.4671 25.8072 31.4283 25.8072 31.3896V30.6923H24.5612V31.3896C24.5612 31.4477 24.5807 31.4671 24.6391 31.4671V31.5058H24.1719V31.4671C24.2303 31.4671 24.2497 31.4283 24.2497 31.3896V29.8013C24.2497 29.7625 24.2303 29.7238 24.1719 29.7238V29.6851H24.6391V29.7238C24.5807 29.7238 24.5612 29.7625 24.5612 29.8013V30.4598H25.8072V29.8013C25.8072 29.7625 25.7877 29.7238 25.7293 29.7238V29.6851H26.1966V29.7238C26.1382 29.7238 26.1187 29.7625 26.1187 29.8013V31.3896Z" fill="black"/>
<path d="M27.8318 30.7892H28.5911L28.2017 29.9563L27.8318 30.7892ZM27.715 31.0217L27.5982 31.2928C27.5788 31.3316 27.5398 31.3897 27.5398 31.4284C27.5398 31.4478 27.5593 31.4672 27.5982 31.4672V31.5059H27.1699V31.4672C27.2283 31.4672 27.2478 31.4478 27.3062 31.2928L27.9486 29.8788C27.9876 29.8014 28.0071 29.7626 28.0071 29.7433C28.0071 29.7239 27.9876 29.7045 27.9486 29.7045V29.6658H28.4548V29.7045C28.4159 29.7045 28.3964 29.7239 28.3964 29.7433C28.3964 29.7626 28.4159 29.8014 28.4548 29.8982L29.1362 31.2928C29.2141 31.4478 29.2141 31.4672 29.2919 31.4672V31.5059H28.8052V31.4672C28.8636 31.4672 28.8831 31.4478 28.8831 31.4284C28.8831 31.409 28.8831 31.3897 28.8442 31.3122L28.7079 31.041H27.715V31.0217Z" fill="black"/>
<path d="M30.6735 30.4792H31.4523C31.7443 30.4792 31.8416 30.363 31.8416 30.1693C31.8416 29.9756 31.7638 29.8981 31.4328 29.8981H30.6735V30.4792ZM30.6735 31.3896C30.6735 31.4477 30.693 31.4671 30.7514 31.4671V31.5058H30.2842V31.4671C30.3426 31.4671 30.3621 31.4283 30.3621 31.3896V29.8013C30.3621 29.7625 30.3426 29.7238 30.2842 29.7238V29.6851H31.4717C31.939 29.6851 32.1142 29.8594 32.1142 30.1887C32.1142 30.4792 31.9584 30.6535 31.608 30.6923L32.0558 31.3702C32.1142 31.4477 32.1142 31.4671 32.1921 31.4671V31.5058H31.6859V31.4671C31.7443 31.4671 31.7638 31.4477 31.7638 31.4283C31.7638 31.409 31.7443 31.3896 31.7443 31.3896L31.316 30.7117H30.6735V31.3896Z" fill="black"/>
<path d="M33.3213 31.5058V31.4671C33.3992 31.4671 33.4186 31.4283 33.4186 31.3896V29.8013C33.4186 29.7625 33.3992 29.7238 33.3213 29.7238V29.6851H33.9248V29.7238C33.8664 29.7238 33.8469 29.7432 33.8469 29.7625C33.8469 29.7819 33.8469 29.7819 33.8664 29.8013L34.431 30.9247L35.0345 29.8013C35.0345 29.7819 35.054 29.7625 35.054 29.7625C35.054 29.7432 35.0345 29.7238 34.9566 29.7238V29.6851H35.5796V29.7238C35.5017 29.7238 35.4823 29.7625 35.4823 29.8013V31.3896C35.4823 31.4477 35.5017 31.4671 35.5796 31.4671V31.5058H35.0929V31.4671C35.1708 31.4671 35.1902 31.4283 35.1902 31.3896V30.0143H35.1708L34.431 31.4864L33.6912 30.0143V31.3896C33.6912 31.4477 33.7107 31.4671 33.7691 31.4671V31.5058H33.3213Z" fill="black"/>
<path d="M37.1957 30.7892H37.9549L37.5656 29.9563L37.1957 30.7892ZM37.0789 31.0217L36.9621 31.2928C36.9426 31.3316 36.9231 31.3897 36.9231 31.4284C36.9231 31.4478 36.9426 31.4672 36.9815 31.4672V31.5059H36.5532V31.4672C36.6116 31.4672 36.6311 31.4478 36.6895 31.2928L37.3319 29.8788C37.3709 29.8014 37.3904 29.7626 37.3904 29.7433C37.3904 29.7239 37.3514 29.7045 37.3319 29.7045V29.6658H37.8381V29.7045C37.7992 29.7045 37.7797 29.7239 37.7797 29.7433C37.7797 29.7626 37.7992 29.8014 37.8381 29.8982L38.5195 31.2928C38.5974 31.4478 38.5974 31.4672 38.6752 31.4672V31.5059H38.1885V31.4672C38.2469 31.4672 38.2664 31.4478 38.2664 31.4284C38.2664 31.409 38.2664 31.3897 38.2275 31.3122L38.0912 31.041H37.0789V31.0217Z" fill="black"/>
</svg>
