<svg width="174" height="108" viewBox="0 0 174 108" fill="none" xmlns="http://www.w3.org/2000/svg">
<path d="M155.148 17.9433H46.1915C42.4302 17.9433 39.3811 21.005 39.3811 24.7818V70.3125C39.3811 74.0893 42.4302 77.151 46.1915 77.151H155.148C158.91 77.151 161.959 74.0893 161.959 70.3125V24.7818C161.959 21.005 158.91 17.9433 155.148 17.9433Z" fill="#F5F8FA"/>
<g filter="url(#filter0_d_906_5135)">
<path d="M135.582 39.6331H26.6251C22.8638 39.6331 19.8147 42.6948 19.8147 46.4716V92.0023C19.8147 95.7791 22.8638 98.8408 26.6251 98.8408H135.582C139.343 98.8408 142.392 95.7791 142.392 92.0023V46.4716C142.392 42.6948 139.343 39.6331 135.582 39.6331Z" fill="white"/>
</g>
<path opacity="0.5" d="M59.9255 60.0351H32.4185V64.5891H59.9255V60.0351Z" fill="#8EA2C0"/>
<path d="M120.084 71.4128H32.4185V75.9669H120.084V71.4128Z" fill="#F5F8FA"/>
<path opacity="0.5" d="M78.9318 30.2585H51.4248V34.8126H78.9318V30.2585Z" fill="#8EA2C0"/>
<path d="M7.04399 42.9684C7.79842 42.9684 8.41001 42.3543 8.41001 41.5968C8.41001 40.8392 7.79842 40.2251 7.04399 40.2251C6.28956 40.2251 5.67798 40.8392 5.67798 41.5968C5.67798 42.3543 6.28956 42.9684 7.04399 42.9684Z" fill="#C1CCDD"/>
<path d="M149.812 6.71848C150.567 6.71848 151.178 6.10437 151.178 5.34684C151.178 4.5893 150.567 3.97519 149.812 3.97519C149.058 3.97519 148.446 4.5893 148.446 5.34684C148.446 6.10437 149.058 6.71848 149.812 6.71848Z" fill="#C1CCDD"/>
<path d="M60.2645 6.72342C60.9592 6.72342 61.5224 6.15791 61.5224 5.46032C61.5224 4.76273 60.9592 4.19722 60.2645 4.19722C59.5698 4.19722 59.0066 4.76273 59.0066 5.46032C59.0066 6.15791 59.5698 6.72342 60.2645 6.72342Z" fill="#C1CCDD"/>
<path d="M26.4631 6.15108C27.8119 6.15108 28.9052 5.0532 28.9052 3.69889C28.9052 2.34459 27.8119 1.2467 26.4631 1.2467C25.1144 1.2467 24.021 2.34459 24.021 3.69889C24.021 5.0532 25.1144 6.15108 26.4631 6.15108Z" stroke="#C7D0DF" stroke-miterlimit="10"/>
<path d="M2.65592 88.5732C3.57047 88.5732 4.31185 87.8287 4.31185 86.9104C4.31185 85.9921 3.57047 85.2477 2.65592 85.2477C1.74138 85.2477 1 85.9921 1 86.9104C1 87.8287 1.74138 88.5732 2.65592 88.5732Z" stroke="#C7D0DF" stroke-miterlimit="10"/>
<path d="M170.853 55.3428C171.767 55.3428 172.509 54.5984 172.509 53.6801C172.509 52.7618 171.767 52.0173 170.853 52.0173C169.938 52.0173 169.197 52.7618 169.197 53.6801C169.197 54.5984 169.938 55.3428 170.853 55.3428Z" stroke="#C7D0DF" stroke-miterlimit="10"/>
<path d="M155.257 93.1815C156.453 93.1815 157.424 92.2073 157.424 91.0056C157.424 89.8039 156.453 88.8297 155.257 88.8297C154.06 88.8297 153.09 89.8039 153.09 91.0056C153.09 92.2073 154.06 93.1815 155.257 93.1815Z" fill="#C1CCDD"/>
<defs>
<filter id="filter0_d_906_5135" x="10.6547" y="30.4731" width="140.898" height="77.5277" filterUnits="userSpaceOnUse" color-interpolation-filters="sRGB">
<feFlood flood-opacity="0" result="BackgroundImageFix"/>
<feColorMatrix in="SourceAlpha" type="matrix" values="0 0 0 0 0 0 0 0 0 0 0 0 0 0 0 0 0 0 127 0" result="hardAlpha"/>
<feOffset/>
<feGaussianBlur stdDeviation="4.58"/>
<feColorMatrix type="matrix" values="0 0 0 0 0.556863 0 0 0 0 0.635294 0 0 0 0 0.752941 0 0 0 1 0"/>
<feBlend mode="normal" in2="BackgroundImageFix" result="effect1_dropShadow_906_5135"/>
<feBlend mode="normal" in="SourceGraphic" in2="effect1_dropShadow_906_5135" result="shape"/>
</filter>
</defs>
</svg>
