<svg width="11" height="13" viewBox="0 0 11 13" fill="none" xmlns="http://www.w3.org/2000/svg">
<path d="M8.3348 0H0V13H11V2.45274L8.3348 0Z" fill="white"/>
<path d="M8.33472 2.45274H10.9999L8.33472 0V2.45274Z" fill="#F2F2F2"/>
<path d="M3.37891 7.88477H2.61914V7.57812H3.37891C3.52604 7.57812 3.64518 7.55469 3.73633 7.50781C3.82747 7.46094 3.89388 7.39583 3.93555 7.3125C3.97852 7.22917 4 7.13411 4 7.02734C4 6.92969 3.97852 6.83789 3.93555 6.75195C3.89388 6.66602 3.82747 6.59701 3.73633 6.54492C3.64518 6.49154 3.52604 6.46484 3.37891 6.46484H2.70703V9H2.33008V6.15625H3.37891C3.59375 6.15625 3.77539 6.19336 3.92383 6.26758C4.07227 6.3418 4.1849 6.44466 4.26172 6.57617C4.33854 6.70638 4.37695 6.85547 4.37695 7.02344C4.37695 7.20573 4.33854 7.36133 4.26172 7.49023C4.1849 7.61914 4.07227 7.71745 3.92383 7.78516C3.77539 7.85156 3.59375 7.88477 3.37891 7.88477ZM5.62305 9H5.0293L5.0332 8.69336H5.62305C5.82617 8.69336 5.99544 8.65104 6.13086 8.56641C6.26628 8.48047 6.36784 8.36068 6.43555 8.20703C6.50456 8.05208 6.53906 7.87109 6.53906 7.66406V7.49023C6.53906 7.32747 6.51953 7.18294 6.48047 7.05664C6.44141 6.92904 6.38411 6.82161 6.30859 6.73438C6.23307 6.64583 6.14062 6.57878 6.03125 6.5332C5.92318 6.48763 5.79883 6.46484 5.6582 6.46484H5.01758V6.15625H5.6582C5.8444 6.15625 6.01432 6.1875 6.16797 6.25C6.32161 6.3112 6.45378 6.40039 6.56445 6.51758C6.67643 6.63346 6.76237 6.77409 6.82227 6.93945C6.88216 7.10352 6.91211 7.28841 6.91211 7.49414V7.66406C6.91211 7.86979 6.88216 8.05534 6.82227 8.2207C6.76237 8.38477 6.67578 8.52474 6.5625 8.64062C6.45052 8.75651 6.3151 8.8457 6.15625 8.9082C5.9987 8.9694 5.82096 9 5.62305 9ZM5.23047 6.15625V9H4.85352V6.15625H5.23047ZM7.85547 6.15625V9H7.47852V6.15625H7.85547ZM9.04688 7.43555V7.74414H7.77344V7.43555H9.04688ZM9.24023 6.15625V6.46484H7.77344V6.15625H9.24023Z" fill="black"/>
</svg>
