<svg width="20" height="20" viewBox="0 0 20 20" fill="none" xmlns="http://www.w3.org/2000/svg">
<circle cx="10" cy="10" r="10" fill="#E5E5E5"/>
<path d="M10.0002 10.8333C12.0705 10.8333 13.7502 9.15364 13.7502 7.08333C13.7502 5.01302 12.0705 3.33333 10.0002 3.33333C7.92985 3.33333 6.25016 5.01302 6.25016 7.08333C6.25016 9.15364 7.92985 10.8333 10.0002 10.8333ZM13.3335 11.6667H11.8986C11.3205 11.9323 10.6772 12.0833 10.0002 12.0833C9.32308 12.0833 8.68245 11.9323 8.10173 11.6667H6.66683C4.82568 11.6667 3.3335 13.1588 3.3335 15V15.4167C3.3335 16.1068 3.89339 16.6667 4.5835 16.6667H15.4168C16.1069 16.6667 16.6668 16.1068 16.6668 15.4167V15C16.6668 13.1588 15.1746 11.6667 13.3335 11.6667Z" fill="#8EA2C0"/>
</svg>
